
        <svg xmlns="http://www.w3.org/2000/svg" xmlns:xlink="http://www.w3.org/1999/xlink" version="1.1"
        viewBox="0 0 3162.0479098168153 1030.0712969242522">

			<g transform="scale(8.10239549084077) translate(10, 10)">
				<defs id="SvgjsDefs1715"></defs><g id="SvgjsG1716" featureKey="symbolFeature-0" transform="matrix(2.028140397169279,0,0,2.028140397169279,-37.06426498459441,-46.73173369531853)" fill="#faeebb"><defs xmlns="http://www.w3.org/2000/svg"><g id="a"><path fill="#faeebb" stroke="none" d=" M 76.8 23.05 L 70.65 23.05 20.05 23.05 Q 19.5 23 19.1 23.25 19 23.3 18.85 23.45 18.45 23.75 18.3 24.35 18.2 24.8 18.5 25.35 L 21.45 30.7 46.35 75 Q 46.85 75.7 47.55 75.8 48.15 75.95 48.5 75.75 L 49.4 74.85 77.65 26.15 Q 77.8 26.1 78 25.55 78.3 25.1 78.3 24.65 78.3 24.55 78.3 24.5 78.3 24.25 78.15 24.05 77.95 23.5 77.55 23.25 77.4 23.15 77.15 23.05 76.95 23.05 76.8 23.05 M 73.45 27.95 L 73.05 28.75 57.6 54.6 55.8 53.3 41.5 43.4 73.45 27.95 M 71.25 25.95 L 71.7 26 32.6 44.35 22.35 26.1 71.25 25.95 M 34.05 47 L 38.45 44.9 55.95 57.1 Q 56 57.2 56.1 57.2 L 47.8 71.55 34.05 47 Z"></path></g></defs><g xmlns="http://www.w3.org/2000/svg" transform="matrix( 1, 0, 0, 1, 0,0) "><use xmlns:xlink="http://www.w3.org/1999/xlink" xlink:href="#a"></use></g></g><g id="SvgjsG1717" featureKey="nameFeature-0" transform="matrix(1.0896009251423258,0,0,1.0896009251423258,140.91076237873213,7.622133864467969)" fill="#faeebb"><path d="M18.52 24.759999999999998 c3.68 0 7.28 2.68 7.28 7.16 c0 4.92 -4.4 8.16 -11.16 8.16 c-1.92 0 -4.24 -0.24 -7.08 -0.24 c-2.36 0 -4.32 0.04 -6.16 0.24 c-0.36 0.04 -0.56 -1.28 -0.24 -1.36 c2.32 -0.6 4.16 -0.96 4.16 -3.92 l0 -17.84 c0 -2.6 -1.68 -3.32 -3.4 -3.72 c-0.32 -0.08 -0.12 -1.36 0.2 -1.32 c1.64 0.2 3.52 0.24 4.76 0.24 c3.04 0 5.4 -0.24 7.16 -0.24 c5.2 0 9.48 2.16 9.52 6.56 c0.04 3.32 -2.36 5.52 -5.04 6.04 l0 0.24 z M12.8 13.920000000000002 c-2.24 0 -3 0.76 -3 3.04 l0 7.16 l4.2 0 c3 0 4.92 -1.4 4.92 -4.64 c0 -3.92 -2.8 -5.56 -6.12 -5.56 z M14.6 38.08 c3.8 0 6.36 -1.12 6.36 -5.32 c0 -4.64 -3.16 -6.72 -6.96 -6.72 l-4.2 0 l0 8.76 c0 2.2 1.16 3.28 4.8 3.28 z M57.63 39.04 c0.32 0 0.24 1.04 0 1.12 c-2.4 0.88 -5.8 0.68 -8.12 -2.32 l-6.2 -7.96 c-1.68 -2.2 -3.84 -2.56 -6.68 -2.6 l0 7.8 c0 2.8 1.88 3.28 4.52 3.6 c0.28 0.04 0.08 1.32 -0.24 1.32 l-11.88 0 c-0.32 0 -0.56 -1.28 -0.24 -1.32 c2 -0.28 3.36 -1.04 3.36 -3.6 l0 -17.96 c0 -2.64 -1.44 -3.4 -3.36 -3.92 c-0.32 -0.08 -0.12 -1.32 0.24 -1.28 c1.56 0.2 3.36 0.24 4.6 0.24 c2.84 0 5.48 -0.24 7.36 -0.24 c5.92 0 10 2.44 10 7.4 c0 4.68 -3.84 6.96 -7.04 7.16 l0 0.2 c1.52 0 2.64 0.68 4.36 2.84 l6.04 7.56 c1.2 1.52 2.32 1.96 3.28 1.96 z M37.83 25.52 c6 0 8.44 -1.04 8.44 -5.16 c0 -4.28 -2.8 -6.44 -6.44 -6.44 c-2.36 0 -3.2 0.96 -3.2 3.2 l0 8.4 l1.2 0 z M82.33000000000001 40.64 c-6.72 0 -15.84 -3.92 -15.84 -14.16 c0 -6.92 4.28 -15.12 15.4 -15.12 c4.6 0 8.64 1.44 8.16 2.84 l-0.52 1.48 c-1.32 4.08 -3.04 -1.24 -10.04 -1.24 c-5.76 0 -8.72 3.72 -8.72 9.64 c0 8.96 6.8 12.88 12.48 12.88 c0.68 0 4.16 -0.56 6.44 -2 c0.32 -0.2 1.12 0.68 0.88 1.04 c-1.72 2.52 -7.04 4.64 -8.24 4.64 z M93.04000000000002 40.08 c-0.4 0.04 -0.56 -1.28 -0.24 -1.36 c2.32 -0.6 4.16 -0.96 4.16 -3.92 l0 -17.92 c0 -2.8 -1.68 -3.36 -3.4 -3.6 c-0.32 -0.04 -0.08 -1.28 0.2 -1.28 l10.76 0 c0.32 0 0.52 1.24 0.24 1.28 c-1.72 0.24 -3.32 0.8 -3.32 3.6 l0 17.92 c0 2.28 1 3.08 4.4 3.08 c6.24 0 8.48 -2.68 9.44 -4.28 c0.32 -0.48 1.32 -0.28 1.32 0.4 c0 2.12 -1.68 6.08 -4.16 6.08 c-2.12 -0.12 -4.48 -0.24 -7.84 -0.24 c-3.72 0 -7.88 -0.12 -11.56 0.24 z M133.43 40.64 c-8.32 0 -14.4 -6.2 -14.4 -14.48 c0 -8.08 5.72 -14.8 14.48 -14.8 c8.36 0 14.4 6.16 14.4 14.44 c0 8.12 -5.68 14.84 -14.48 14.84 z M134.95000000000002 38.04 c3.6 0 8.52 -2.32 8.52 -10.08 c0 -8.16 -5.6 -14 -11.48 -14 c-3.6 0 -8.44 2.32 -8.44 10 c0 8.24 5.56 14.08 11.4 14.08 z M165.82000000000002 40.64 c-5.56 0 -11.84 -3 -11.84 -11.12 l0 -12.64 c0 -2.52 -1.36 -3.36 -3.28 -3.6 c-0.32 -0.04 -0.08 -1.28 0.24 -1.28 l10.64 0 c0.32 0 0.56 1.24 0.24 1.28 c-1.6 0.24 -3.2 0.8 -3.2 3.6 l0 12.84 c0 5.64 3.28 8.32 7.64 8.32 c4.48 0 8 -2.68 8 -8.32 l0 -12.84 c0 -2.6 -1.52 -3.32 -3.48 -3.6 c-0.28 -0.04 -0.08 -1.28 0.24 -1.28 l8.88 0 c0.32 0 0.56 1.24 0.24 1.28 c-1.64 0.24 -3.24 0.8 -3.24 3.6 l0 12.64 c0 7.32 -4.76 11.12 -11.08 11.12 z M182.13000000000002 40.08 c-0.4 0.04 -0.56 -1.28 -0.24 -1.36 c2.32 -0.6 4.16 -0.96 4.16 -3.92 l0 -17.84 c0 -2.6 -1.68 -3.28 -3.4 -3.72 c-0.32 -0.08 -0.12 -1.36 0.2 -1.32 c1.64 0.2 3.32 0.24 4.88 0.24 c2.96 0 5.76 -0.24 7.84 -0.24 c9.76 0 14.92 5.76 14.92 13.48 c0 7.76 -5.24 14.68 -14.96 14.68 c-1.92 0 -4.4 -0.24 -7.24 -0.24 c-2.36 0 -4.32 0.04 -6.16 0.24 z M195.77 38.04 c6.72 0 10.2 -3.64 10.2 -10.52 c0 -7.52 -4.2 -13.56 -11.6 -13.56 c-2.92 0 -3.84 0.92 -3.84 3 l0 17.84 c0 2.16 1.36 3.24 5.24 3.24 z"></path></g><g id="SvgjsG1718" featureKey="sloganFeature-0" transform="matrix(1.042784278276962,0,0,1.042784278276962,143.74482386601775,58.07698597563093)" fill="#faeebb"><path d="M5.1 20.32 c-1.66 0 -4.12 -0.74 -3.88 -1.6 l0.2 -0.72 c0.54 -2.04 1.18 0.98 4.48 0.98 c1.7 0 2.6 -0.84 2.6 -2.04 c0 -0.98 -0.68 -1.4 -2.04 -2.24 l-2.08 -1.28 c-2.1 -1.3 -2.94 -2.16 -2.94 -3.62 c0 -2.42 2.34 -4.12 4.86 -4.12 c1.52 0 3.44 0.66 3.22 1.34 l-0.24 0.74 c-0.58 1.88 -1.1 -0.76 -3.84 -0.76 c-1.46 0 -2.22 0.76 -2.22 1.84 c0 0.88 0.52 1.4 1.88 2.22 l2.2 1.34 c2.08 1.28 2.92 2.18 2.92 3.6 c0 2.48 -2.44 4.32 -5.12 4.32 z M30.19 20.32 c-4.16 0 -7.2 -3.1 -7.2 -7.24 c0 -4.04 2.86 -7.4 7.24 -7.4 c4.18 0 7.2 3.08 7.2 7.22 c0 4.06 -2.84 7.42 -7.24 7.42 z M30.950000000000003 19.02 c1.8 0 4.26 -1.16 4.26 -5.04 c0 -4.08 -2.8 -7 -5.74 -7 c-1.8 0 -4.22 1.16 -4.22 5 c0 4.12 2.78 7.04 5.7 7.04 z M49.900000000000006 20.04 c-0.2 0.02 -0.28 -0.64 -0.12 -0.68 c1.16 -0.3 2.08 -0.48 2.08 -1.96 l0 -8.96 c0 -1.4 -0.84 -1.68 -1.7 -1.8 c-0.16 -0.02 -0.04 -0.64 0.1 -0.64 l5.38 0 c0.16 0 0.26 0.62 0.12 0.64 c-0.86 0.12 -1.66 0.4 -1.66 1.8 l0 8.96 c0 1.14 0.5 1.54 2.2 1.54 c3.12 0 4.24 -1.34 4.72 -2.14 c0.16 -0.24 0.66 -0.14 0.66 0.2 c0 1.06 -0.84 3.04 -2.08 3.04 c-1.06 -0.06 -2.24 -0.12 -3.92 -0.12 c-1.86 0 -3.94 -0.06 -5.78 0.12 z M81.29 20.32 c-2.78 0 -5.92 -1.5 -5.92 -5.56 l0 -6.32 c0 -1.26 -0.68 -1.68 -1.64 -1.8 c-0.16 -0.02 -0.04 -0.64 0.12 -0.64 l5.32 0 c0.16 0 0.28 0.62 0.12 0.64 c-0.8 0.12 -1.6 0.4 -1.6 1.8 l0 6.42 c0 2.82 1.64 4.16 3.82 4.16 c2.24 0 4 -1.34 4 -4.16 l0 -6.42 c0 -1.3 -0.76 -1.66 -1.74 -1.8 c-0.14 -0.02 -0.04 -0.64 0.12 -0.64 l4.44 0 c0.16 0 0.28 0.62 0.12 0.64 c-0.82 0.12 -1.62 0.4 -1.62 1.8 l0 6.32 c0 3.66 -2.38 5.56 -5.54 5.56 z M103.7 20 c-0.18 0 -0.3 -0.62 -0.14 -0.64 c1.38 -0.16 2.3 -0.46 2.3 -1.54 l0 -9.92 c0 -0.5 -0.18 -0.66 -0.66 -0.66 l-0.58 0 c-1.96 0 -2.94 0.4 -3.36 1.3 c-0.18 0.38 -0.84 0.32 -0.76 0 c0.18 -0.74 0.34 -1.32 0.46 -2.36 c0.04 -0.38 0.26 -0.36 0.62 -0.32 c0.84 0.1 1.76 0.14 5.5 0.14 c3.76 0 5.16 -0.04 6.04 -0.14 c0.36 -0.04 0.7 -0.06 0.58 0.32 c-0.3 0.92 -0.5 1.62 -0.62 2.36 c-0.06 0.34 -0.58 0.34 -0.66 0 c-0.18 -0.88 -1.04 -1.3 -2.8 -1.3 l-0.66 0 c-0.48 0 -0.76 0.16 -0.76 0.66 l0 9.92 c0 1.08 0.92 1.38 2.28 1.54 c0.16 0.02 0.04 0.64 -0.14 0.64 l-6.64 0 z M125.99000000000001 20 c-0.16 0 -0.28 -0.64 -0.12 -0.66 c1 -0.14 1.68 -0.52 1.68 -1.8 l0 -9.1 c0 -1.26 -0.68 -1.66 -1.68 -1.8 c-0.16 -0.02 -0.04 -0.64 0.12 -0.64 l5.34 0 c0.16 0 0.28 0.62 0.12 0.64 c-0.86 0.12 -1.66 0.4 -1.66 1.8 l0 9.1 c0 1.4 0.8 1.68 1.66 1.8 c0.16 0.02 0.04 0.66 -0.12 0.66 l-5.34 0 z M151.3 20.32 c-4.16 0 -7.2 -3.1 -7.2 -7.24 c0 -4.04 2.86 -7.4 7.24 -7.4 c4.18 0 7.2 3.08 7.2 7.22 c0 4.06 -2.84 7.42 -7.24 7.42 z M152.06 19.02 c1.8 0 4.26 -1.16 4.26 -5.04 c0 -4.08 -2.8 -7 -5.74 -7 c-1.8 0 -4.22 1.16 -4.22 5 c0 4.12 2.78 7.04 5.7 7.04 z M184.33 20.2 c-0.32 0 -0.5 -0.14 -0.72 -0.38 l-9.56 -10.14 l0 7.82 c0 1.34 0.8 1.58 1.9 1.84 c0.16 0.04 0.08 0.66 -0.12 0.66 l-4.64 0 c-0.16 0 -0.28 -0.6 -0.1 -0.66 c0.88 -0.26 1.66 -0.46 1.66 -1.84 l0 -7.84 c0 -1.36 -0.2 -2.1 -0.78 -2.82 c-0.16 -0.2 -0.32 -0.36 -0.32 -0.42 c0 -0.18 0.12 -0.42 0.38 -0.42 l1.44 0 c0.2 0 0.34 0.02 0.48 0.18 l9.36 10.04 l0 -7.74 c0 -1.42 -0.88 -1.58 -1.88 -1.84 c-0.16 -0.04 -0.08 -0.64 0.12 -0.64 l4.62 0 c0.18 0 0.28 0.6 0.12 0.64 c-0.9 0.26 -1.66 0.42 -1.66 1.84 l0 7.86 c0 1.28 0.04 2.74 0.24 3.48 c0.08 0.3 -0.24 0.38 -0.54 0.38 z M202.94 20.32 c-1.66 0 -4.12 -0.74 -3.88 -1.6 l0.2 -0.72 c0.54 -2.04 1.18 0.98 4.48 0.98 c1.7 0 2.6 -0.84 2.6 -2.04 c0 -0.98 -0.68 -1.4 -2.04 -2.24 l-2.08 -1.28 c-2.1 -1.3 -2.94 -2.16 -2.94 -3.62 c0 -2.42 2.34 -4.12 4.86 -4.12 c1.52 0 3.44 0.66 3.22 1.34 l-0.24 0.74 c-0.58 1.88 -1.1 -0.76 -3.84 -0.76 c-1.46 0 -2.22 0.76 -2.22 1.84 c0 0.88 0.52 1.4 1.88 2.22 l2.2 1.34 c2.08 1.28 2.92 2.18 2.92 3.6 c0 2.48 -2.44 4.32 -5.12 4.32 z"></path></g>
			</g>
		</svg>
